<svg width="270" height="270" viewBox="0 0 270 270" fill="none" xmlns="http://www.w3.org/2000/svg">
<path d="M135 270C209.558 270 270 209.558 270 135C270 60.4416 209.558 0 135 0C60.4416 0 0 60.4416 0 135C0 209.558 60.4416 270 135 270Z" fill="#0b5ed7"/>
<path d="M121.623 186.498C118.586 186.503 115.629 185.521 113.199 183.699L113.049 183.586L81.3217 159.316C79.8523 158.189 78.6192 156.784 77.6927 155.181C76.7663 153.578 76.1647 151.808 75.9222 149.973C75.6797 148.137 75.8012 146.272 76.2796 144.483C76.7581 142.695 77.5841 141.018 78.7106 139.548C79.8371 138.079 81.242 136.846 82.8451 135.919C84.4482 134.993 86.218 134.391 88.0536 134.149C89.8892 133.906 91.7546 134.028 93.5432 134.506C95.3319 134.985 97.0088 135.811 98.4782 136.937L119.028 152.696L167.589 89.3429C168.715 87.8741 170.12 86.6414 171.722 85.7154C173.324 84.7893 175.093 84.1879 176.928 83.9456C178.763 83.7032 180.628 83.8246 182.416 84.3029C184.203 84.7811 185.88 85.6069 187.348 86.7329L187.353 86.736L187.051 87.1545L187.361 86.736C190.324 89.0134 192.263 92.3733 192.751 96.0785C193.24 99.7837 192.239 103.531 189.968 106.499L132.849 180.983C131.528 182.699 129.829 184.088 127.884 185.042C125.939 185.995 123.801 186.488 121.635 186.482L121.623 186.498Z" fill="white"/>
</svg>
