<svg width="322" height="48" viewBox="0 0 322 48" fill="none" xmlns="http://www.w3.org/2000/svg">
<path d="M23.4065 0.990532C24.0584 -0.33018 25.9416 -0.330176 26.5935 0.990536L32.9423 13.8547C33.2011 14.3791 33.7014 14.7426 34.2802 14.8267L48.4766 16.8896C49.9341 17.1014 50.5161 18.8925 49.4614 19.9205L39.1888 29.9339C38.77 30.3421 38.5789 30.9303 38.6778 31.5067L41.1028 45.6457C41.3518 47.0973 39.8282 48.2043 38.5245 47.519L25.8269 40.8434C25.3092 40.5712 24.6908 40.5712 24.1731 40.8434L11.4755 47.519C10.1718 48.2043 8.64822 47.0973 8.89719 45.6457L11.3222 31.5067C11.4211 30.9303 11.23 30.3421 10.8112 29.9339L0.53856 19.9205C-0.516092 18.8925 0.0658811 17.1014 1.52337 16.8896L15.7198 14.8267C16.2986 14.7426 16.7989 14.3791 17.0577 13.8547L23.4065 0.990532Z" fill="#FABA46"/>
<path d="M91.4065 0.990532C92.0584 -0.33018 93.9416 -0.330176 94.5935 0.990536L100.942 13.8547C101.201 14.3791 101.701 14.7426 102.28 14.8267L116.477 16.8896C117.934 17.1014 118.516 18.8925 117.461 19.9205L107.189 29.9339C106.77 30.3421 106.579 30.9303 106.678 31.5067L109.103 45.6457C109.352 47.0973 107.828 48.2043 106.525 47.519L93.8269 40.8434C93.3092 40.5712 92.6908 40.5712 92.1731 40.8434L79.4755 47.519C78.1718 48.2043 76.6482 47.0973 76.8972 45.6457L79.3222 31.5067C79.4211 30.9303 79.23 30.3421 78.8112 29.9339L68.5386 19.9205C67.4839 18.8925 68.0659 17.1014 69.5234 16.8896L83.7198 14.8267C84.2986 14.7426 84.7989 14.3791 85.0577 13.8547L91.4065 0.990532Z" fill="#FABA46"/>
<path d="M159.407 0.990532C160.058 -0.33018 161.942 -0.330176 162.593 0.990536L168.942 13.8547C169.201 14.3791 169.701 14.7426 170.28 14.8267L184.477 16.8896C185.934 17.1014 186.516 18.8925 185.461 19.9205L175.189 29.9339C174.77 30.3421 174.579 30.9303 174.678 31.5067L177.103 45.6457C177.352 47.0973 175.828 48.2043 174.525 47.519L161.827 40.8434C161.309 40.5712 160.691 40.5712 160.173 40.8434L147.475 47.519C146.172 48.2043 144.648 47.0973 144.897 45.6457L147.322 31.5067C147.421 30.9303 147.23 30.3421 146.811 29.9339L136.539 19.9205C135.484 18.8925 136.066 17.1014 137.523 16.8896L151.72 14.8267C152.299 14.7426 152.799 14.3791 153.058 13.8547L159.407 0.990532Z" fill="#FABA46"/>
<path d="M227.407 0.990532C228.058 -0.33018 229.942 -0.330176 230.593 0.990536L236.942 13.8547C237.201 14.3791 237.701 14.7426 238.28 14.8267L252.477 16.8896C253.934 17.1014 254.516 18.8925 253.461 19.9205L243.189 29.9339C242.77 30.3421 242.579 30.9303 242.678 31.5067L245.103 45.6457C245.352 47.0973 243.828 48.2043 242.525 47.519L229.827 40.8434C229.309 40.5712 228.691 40.5712 228.173 40.8434L215.475 47.519C214.172 48.2043 212.648 47.0973 212.897 45.6457L215.322 31.5067C215.421 30.9303 215.23 30.3421 214.811 29.9339L204.539 19.9205C203.484 18.8925 204.066 17.1014 205.523 16.8896L219.72 14.8267C220.299 14.7426 220.799 14.3791 221.058 13.8547L227.407 0.990532Z" fill="#FABA46"/>
<path d="M295.407 0.990532C296.058 -0.33018 297.942 -0.330176 298.593 0.990536L304.942 13.8547C305.201 14.3791 305.701 14.7426 306.28 14.8267L320.477 16.8896C321.934 17.1014 322.516 18.8925 321.461 19.9205L311.189 29.9339C310.77 30.3421 310.579 30.9303 310.678 31.5067L313.103 45.6457C313.352 47.0973 311.828 48.2043 310.525 47.519L297.827 40.8434C297.309 40.5712 296.691 40.5712 296.173 40.8434L283.475 47.519C282.172 48.2043 280.648 47.0973 280.897 45.6457L283.322 31.5067C283.421 30.9303 283.23 30.3421 282.811 29.9339L272.539 19.9205C271.484 18.8925 272.066 17.1014 273.523 16.8896L287.72 14.8267C288.299 14.7426 288.799 14.3791 289.058 13.8547L295.407 0.990532Z" fill="#FABA46"/>
</svg>
